<svg xmlns="http://www.w3.org/2000/svg" width="100%" height="100%" viewBox="0 0 1063 540" fill-rule="evenodd" stroke-linejoin="round" stroke-miterlimit="1.41421"><g transform="scale(4.16667)"><g fill-rule="nonzero"><path d="M53.784 46.573c0 11.584-6.03 17.023-15.368 17.023-9.22 0-15.247-5.675-15.247-17.614V.125L0 23.294v23.16C0 72.343 14.776 84.28 38.18 84.28c23.524 0 38.773-11.82 38.773-38.416V0h-23.17v46.573zm178.52-16.312c0 6.5-5.084 10.875-13.122 10.875H208.2v-21.87h10.875c8.156 0 13.24 3.664 13.24 10.757v.237zM220.84 0h-35.58v82.383L208.2 59.45v-.348h11.467c20.45 0 35.46-10.283 35.46-29.907v-.236c0-18.204-13.476-28.96-34.28-28.96M93.457 0v82.745h22.932V0H93.457zm52.366 30.97h-9.1L116.39 51.302h29.434v31.443h22.932V0h-22.932v30.97z" fill="#002041"/><path d="M5.603 109.16v17.58h5.204c5.616 0 9.2-3.808 9.2-8.725v-.063c0-4.92-3.585-8.79-9.2-8.79H5.603zm-2.507-2.316h7.71c6.98 0 11.803 4.792 11.803 11.043v.064c0 6.25-4.822 11.105-11.803 11.105h-7.71v-22.212z" fill="#00a6eb"/></g><path d="M48.473 106.845h2.507v22.212h-2.507z" fill="#00a6eb"/><path d="M76.843 118.015v-.062c0-6.093 4.474-11.488 11.137-11.488 3.744 0 6.06 1.078 8.282 2.95l-1.62 1.904c-1.713-1.49-3.618-2.537-6.76-2.537-4.916 0-8.437 4.156-8.437 9.106v.065c0 5.297 3.392 9.232 8.79 9.232 2.537 0 4.885-.983 6.41-2.222v-5.52h-6.76V117.2h9.17v8.853c-2.062 1.84-5.17 3.395-8.914 3.395-6.98 0-11.296-5.077-11.296-11.423" fill="#00a6eb" fill-rule="nonzero"/><path d="M123.264 106.845h2.507v22.212h-2.507z" fill="#00a6eb"/><path d="M158.5 109.16h-7.457v-2.316h17.452v2.316h-7.457v19.896H158.5V109.16zm46.574 11.74l-5.045-11.296-5.08 11.296h10.124zm-6.187-14.215h2.348l10.12 22.37h-2.696l-2.603-5.87h-12.1l-2.632 5.87h-2.572l10.124-22.37zm37.19.16h2.508v19.896h12.5v2.316h-15.007v-22.212z" fill="#00a6eb" fill-rule="nonzero"/></g></svg>