<svg xmlns="http://www.w3.org/2000/svg" xmlns:xlink="http://www.w3.org/1999/xlink" width="100%" height="100%" viewBox="0 0 232 147" fill-rule="evenodd" stroke-linejoin="round" stroke-miterlimit="1.41421"><g fill="#fff" fill-rule="nonzero"><use xlink:href="#B"/><path d="M127.73 104.68h-15.057V90.307h15.057v14.374zm1.087-16.547h-17.23c-.6 0-1.087.486-1.087 1.087v16.547c0 .6.486 1.087 1.087 1.087h17.23c.6 0 1.087-.486 1.087-1.087V89.22c0-.6-.486-1.087-1.087-1.087M97.343 31.126c0-.6-.487-1.086-1.087-1.086s-1.087.486-1.087 1.086a24.71 24.71 0 0 0 1.165 7.475H86.98c-.6 0-1.086.486-1.086 1.087s.486 1.086 1.086 1.086h10.886c.358 0 .693-.176.895-.47a1.09 1.09 0 0 0 .12-1.005c-1.02-2.656-1.537-5.406-1.537-8.172"/><path d="M120.185 49.3c-.6 0-1.087.486-1.087 1.086v37.95c0 .6.486 1.087 1.087 1.087a1.09 1.09 0 0 0 1.087-1.087v-37.95c0-.6-.487-1.086-1.087-1.086"/><path d="M120.2 48.998c-9.842 0-17.85-8.007-17.85-17.85s8-17.848 17.85-17.848 17.85 8.007 17.85 17.85S130.042 49 120.2 49m0-37.872a20.05 20.05 0 0 0-20.022 20.023c0 11.04 8.98 20.023 20.022 20.023s20.022-8.982 20.022-20.023-8.98-20.023-20.022-20.023m8.406 15.338a7.73 7.73 0 0 0-1.582.166c-.588.124-.964.7-.84 1.287s.7.964 1.286.84a5.58 5.58 0 0 1 1.136-.119 5.5 5.5 0 0 1 5.493 5.488c0 3.024-2.464 5.484-5.493 5.484H111.47a5.17 5.17 0 0 1-5.167-5.158 5.17 5.17 0 0 1 5.167-5.158c2.85 0 5.168 2.318 5.168 5.168 0 .6.487 1.086 1.087 1.086s1.087-.486 1.087-1.086c0-4.048-3.293-7.342-7.342-7.342s-7.34 3.3-7.34 7.332a7.35 7.35 0 0 0 7.34 7.332h17.135c4.228 0 7.667-3.435 7.667-7.658s-3.44-7.662-7.667-7.662"/><path d="M118.45 20.493c-4.42 0-8.37 2.96-9.606 7.202-.168.576.163 1.18.74 1.347s1.18-.163 1.347-.74c.967-3.32 4.06-5.637 7.52-5.637 4.317 0 7.83 3.514 7.83 7.83 0 .6.486 1.087 1.087 1.087s1.086-.487 1.086-1.087c0-5.516-4.487-10.004-10.004-10.004m38.735 15.074h-12.37a25.1 25.1 0 0 0 .39-4.415c0-13.786-11.226-25-25.024-25-.6 0-1.087.486-1.087 1.086a1.09 1.09 0 0 0 1.087 1.087c12.6 0 22.85 10.24 22.85 22.828 0 1.77-.204 3.538-.607 5.253a1.09 1.09 0 0 0 1.059 1.335h13.703c.6 0 1.087-.486 1.087-1.086s-.486-1.087-1.087-1.087"/><path d="M181.346 30.125h-37.2c-.6 0-1.087.486-1.087 1.087s.486 1.087 1.087 1.087h37.2a1.09 1.09 0 0 0 1.087-1.087c0-.6-.486-1.087-1.087-1.087m-16.696-5.313h-20.872a1.09 1.09 0 0 0-1.087 1.087c0 .6.486 1.087 1.087 1.087h20.872a1.09 1.09 0 0 0 1.087-1.087 1.09 1.09 0 0 0-1.087-1.087m-68.3 7.843H76.48a1.09 1.09 0 0 0-1.087 1.087 1.09 1.09 0 0 0 1.087 1.087h19.86a1.09 1.09 0 0 0 1.087-1.087c0-.6-.486-1.087-1.087-1.087m84.816 74.57a1.09 1.09 0 0 0-1.087 1.087v26.806H60.3V108.7a1.09 1.09 0 0 0-1.087-1.087 1.09 1.09 0 0 0-1.087 1.087v27.513a1.09 1.09 0 0 0 1.087 1.087h121.944c.6 0 1.087-.486 1.087-1.087V108.3c0-.6-.486-1.087-1.087-1.087m-7.6-51.41H66.846c-4.8 0-8.72 3.895-8.72 8.682V86.3a1.09 1.09 0 0 0 1.087 1.087c.6 0 1.087-.485 1.087-1.087V64.486c0-3.6 2.936-6.5 6.546-6.5h106.7a6.52 6.52 0 0 1 6.513 6.509V86.3c0 .6.486 1.087 1.087 1.087s1.087-.486 1.087-1.087V64.486a8.7 8.7 0 0 0-8.687-8.682M177.93 96.4h-24.414a1.09 1.09 0 0 0-1.087 1.087c0 .6.486 1.087 1.087 1.087h24.414a1.09 1.09 0 0 0 1.087-1.087 1.09 1.09 0 0 0-1.087-1.087"/><path d="M196.926 115.344c-9.843 0-17.85-8.007-17.85-17.85s8.007-17.85 17.85-17.85 17.85 8.007 17.85 17.85-8.007 17.85-17.85 17.85m0-37.872a20.05 20.05 0 0 0-20.023 20.023c0 11.04 8.982 20.023 20.023 20.023a20.05 20.05 0 0 0 20.022-20.023 20.05 20.05 0 0 0-20.022-20.023m10.15 10.468a1.09 1.09 0 0 0-1.087 1.087v5.94c0 .6.486 1.087 1.087 1.087a1.09 1.09 0 0 0 1.087-1.087v-5.94a1.09 1.09 0 0 0-1.087-1.087"/><path d="M186.85 93.7a1.09 1.09 0 0 0-1.087 1.087v5.945c0 .6.486 1.087 1.087 1.087s1.087-.487 1.087-1.087v-5.945c0-.6-.486-1.087-1.087-1.087m19.2-4.384zm-9.137 1.033c-4.792 0-7.792-.78-8.73-1.324.938-.543 3.94-1.324 8.73-1.324 4.824 0 7.863.777 8.838 1.324-.975.547-4.014 1.324-8.838 1.324m0-4.82c-1.857 0-11.124.168-11.124 3.497s9.267 3.498 11.124 3.498c1.88 0 11.25-.17 11.25-3.498s-9.37-3.497-11.25-3.497"/><path d="M205.99 100.318zm0 5.48c-.603.54-3.77 1.5-9.12 1.5-5.29 0-8.41-.946-8.994-1.482v-3.218c2.868 1.147 7.706 1.227 8.994 1.227 1.307 0 6.222-.08 9.12-1.237v3.22zm-18.114-5.48zm19.2-1.086c-.54 0-.986.392-1.072.907-.564.538-3.74 1.504-9.135 1.504-5.333 0-8.46-.96-9.007-1.495-.082-.52-.53-.916-1.074-.916a1.09 1.09 0 0 0-1.087 1.087v5.646c0 3.33 9.303 3.498 11.168 3.498 1.886 0 11.294-.17 11.294-3.498v-5.646a1.09 1.09 0 0 0-1.087-1.087"/><path d="M207.076 93.587a1.09 1.09 0 0 0-1.072.908c-.564.54-3.742 1.5-9.137 1.5-5.415 0-8.493-1.003-8.98-1.557l.006-5.512c0-.6-.486-1.07-1.086-1.07a1.07 1.07 0 0 0-1.088 1.067l-.005 5.6c0 1.935 2.823 2.64 3.75 2.873 1.954.488 4.583.757 7.4.757 1.307 0 6.224-.08 9.122-1.238v3.395c0 .6.486 1.087 1.087 1.087a1.09 1.09 0 0 0 1.087-1.087v-5.658c0-.6-.487-1.085-1.087-1.085m16.777-2.354h-2.656a1.09 1.09 0 0 0-1.087 1.087c0 .6.486 1.087 1.087 1.087h2.656a1.09 1.09 0 0 0 1.087-1.087c0-.6-.486-1.087-1.087-1.087"/><path d="M230.427 96.4h-8.458c-.266-6.303-2.835-12.18-7.305-16.652a24.86 24.86 0 0 0-17.7-7.327c-.6 0-1.087.486-1.087 1.086a1.09 1.09 0 0 0 1.087 1.087c12.607 0 22.864 10.27 22.864 22.893a1.09 1.09 0 0 0 1.087 1.087h9.522a1.09 1.09 0 0 0 1.087-1.087c0-.6-.486-1.087-1.087-1.087m-143.457 0H62.44c-.6 0-1.086.487-1.086 1.087s.486 1.087 1.086 1.087h24.54a1.09 1.09 0 0 0 1.087-1.087A1.09 1.09 0 0 0 86.98 96.4"/><path d="M42.82 116.1a18.53 18.53 0 0 1-18.505-18.505A18.53 18.53 0 0 1 42.82 79.091c10.204 0 18.504 8.3 18.504 18.504S53.025 116.1 42.82 116.1m0-39.183c-11.402 0-20.68 9.276-20.68 20.678s9.277 20.68 20.68 20.68 20.68-9.277 20.68-20.68-9.277-20.678-20.68-20.678m8.222 14.977c0 7.33.001 11.438-8.947 16.958-9.045-5.8-8.984-9.58-8.866-16.94v-3.425c2.813 1.226 5.763 1.017 8.796-.625 3.028 1.63 6.105 1.827 9.016.595v3.437zm1.613-6.182c-.346-.2-.77-.18-1.104.032-2.903 1.824-5.834 1.804-8.96-.06a1.09 1.09 0 0 0-.556-.153h-.017c-.196 0-.388.053-.557.153-3.106 1.854-5.96 1.877-8.723.07a1.09 1.09 0 0 0-1.682.91v5.22c-.07 4.26-.014 7.273 1.312 10.207 1.392 3.082 4.153 5.813 8.936 8.834.198.192.467.306.757.306h.043a1.09 1.09 0 0 0 .739-.289c10.374-6.276 10.373-11.368 10.373-19.05v-5.23a1.09 1.09 0 0 0-.561-.952m-34.49 5.134H15.38a1.09 1.09 0 0 0-1.087 1.087 1.09 1.09 0 0 0 1.087 1.087h2.783a1.09 1.09 0 0 0 1.087-1.087 1.09 1.09 0 0 0-1.087-1.087"/><path d="M42.36 72.05c-6.7 0-12.997 2.602-17.73 7.327a24.87 24.87 0 0 0-7.327 16.652H8.93a1.09 1.09 0 0 0-1.087 1.087 1.09 1.09 0 0 0 1.087 1.087h9.438c.6 0 1.087-.486 1.087-1.087 0-12.623 10.275-22.892 22.906-22.892a1.09 1.09 0 0 0 1.087-1.087 1.09 1.09 0 0 0-1.087-1.087m-12.958 44.804c-5.295-3.704-8.86-9.48-9.782-15.844-.078-.535-.536-.93-1.076-.93H1.087c-.6 0-1.087.486-1.087 1.087s.487 1.086 1.087 1.086h16.535a25.73 25.73 0 0 0 10.535 16.383 1.08 1.08 0 0 0 .622.197c.343 0 .68-.162.892-.464a1.09 1.09 0 0 0-.268-1.514"/><use xlink:href="#C"/><use xlink:href="#C" x="8.992"/><path d="M103.02 78.334c-.5 0-.905-.406-.905-.905s.406-.905.905-.905.905.406.905.905-.406.905-.905.905m0-3.984c-1.697 0-3.08 1.38-3.08 3.08a3.08 3.08 0 0 0 3.08 3.078c1.698 0 3.08-1.38 3.08-3.078s-1.38-3.08-3.08-3.08m50.668-3.113H86.715a9.37 9.37 0 0 0-9.36 9.342v55.7c0 .6.486 1.087 1.086 1.087a1.09 1.09 0 0 0 1.087-1.087V80.58a7.19 7.19 0 0 1 7.188-7.17h66.973c3.945 0 7.154 3.216 7.154 7.17v55.7a1.09 1.09 0 0 0 1.087 1.087 1.09 1.09 0 0 0 1.087-1.087v-55.7c0-5.152-4.184-9.342-9.328-9.342"/><path d="M161.99 81.483H78.503a1.09 1.09 0 0 0-1.087 1.087 1.09 1.09 0 0 0 1.087 1.087h83.488c.6 0 1.087-.487 1.087-1.087s-.486-1.087-1.087-1.087"/><path d="M108.547 71.3a1.09 1.09 0 0 0-1.087 1.087v10.12c0 .6.487 1.086 1.087 1.086s1.087-.486 1.087-1.086v-10.12a1.09 1.09 0 0 0-1.087-1.087m-5.262 33.332H88.13V90.36h15.156v14.27zm1.088-16.445h-17.33a1.09 1.09 0 0 0-1.087 1.087v16.445c0 .6.487 1.086 1.087 1.086h17.33c.6 0 1.087-.486 1.087-1.086V89.274a1.09 1.09 0 0 0-1.087-1.087"/><use xlink:href="#B" x="-48.976"/><path d="M104.436 110.704h-17.33c-.6 0-1.086.486-1.086 1.086s.486 1.087 1.086 1.087h17.33c.6 0 1.086-.486 1.086-1.087s-.486-1.086-1.086-1.086m0 6.198h-17.33c-.6 0-1.086.486-1.086 1.087s.486 1.086 1.086 1.086h17.33c.6 0 1.086-.486 1.086-1.086s-.486-1.087-1.086-1.087m0 5.946h-17.33c-.6 0-1.086.486-1.086 1.087s.486 1.087 1.086 1.087h17.33c.6 0 1.086-.487 1.086-1.087s-.486-1.087-1.086-1.087m0 6.198h-17.33c-.6 0-1.086.487-1.086 1.087s.486 1.087 1.086 1.087h17.33c.6 0 1.086-.487 1.086-1.087s-.486-1.087-1.086-1.087m47.804-24.414H137.2V90.36h15.03v14.27zm1.087-16.445h-17.202a1.09 1.09 0 0 0-1.088 1.087v16.445c0 .6.487 1.086 1.088 1.086h17.202a1.09 1.09 0 0 0 1.088-1.086V89.274a1.09 1.09 0 0 0-1.088-1.087m.073 22.517h-17.33c-.6 0-1.087.486-1.087 1.086s.486 1.087 1.087 1.087h17.33c.6 0 1.087-.486 1.087-1.087s-.486-1.086-1.087-1.086m0 6.198h-17.33c-.6 0-1.087.486-1.087 1.087s.486 1.086 1.087 1.086h17.33c.6 0 1.087-.486 1.087-1.086s-.486-1.087-1.087-1.087m0 5.946h-17.33c-.6 0-1.087.486-1.087 1.087s.486 1.087 1.087 1.087h17.33a1.09 1.09 0 0 0 1.087-1.087c0-.6-.486-1.087-1.087-1.087m0 6.198h-17.33a1.09 1.09 0 0 0-1.087 1.087c0 .6.486 1.087 1.087 1.087h17.33a1.09 1.09 0 0 0 1.087-1.087c0-.6-.486-1.087-1.087-1.087"/><use xlink:href="#B" x="-24.49"/><path d="M128.85 110.704h-17.33c-.6 0-1.087.486-1.087 1.086s.486 1.087 1.087 1.087h17.33c.6 0 1.087-.486 1.087-1.087s-.487-1.086-1.087-1.086m0 6.198h-17.33c-.6 0-1.087.486-1.087 1.087s.486 1.086 1.087 1.086h17.33c.6 0 1.087-.486 1.087-1.086a1.09 1.09 0 0 0-1.087-1.087m0 5.946h-17.33c-.6 0-1.087.486-1.087 1.087s.486 1.087 1.087 1.087h17.33a1.09 1.09 0 0 0 1.087-1.087 1.09 1.09 0 0 0-1.087-1.087m0 6.198h-17.33a1.09 1.09 0 0 0-1.087 1.087c0 .6.486 1.087 1.087 1.087h17.33a1.09 1.09 0 0 0 1.087-1.087 1.09 1.09 0 0 0-1.087-1.087m54.348 15.054H57.203a7.94 7.94 0 0 1-7.858-6.808h141.7c-.542 3.843-3.86 6.808-7.858 6.808m9.022-9a1.04 1.04 0 0 0-.21.02H48.4a1.04 1.04 0 0 0-.21-.02c-.6 0-1.087.486-1.087 1.086v.03c.017 5.55 4.545 10.058 10.1 10.058h125.995c5.564 0 10.093-4.5 10.1-10.058v-.03c0-.6-.486-1.086-1.087-1.086"/><path d="M133.557 135.13a1.09 1.09 0 0 0-1.087 1.087v.025c0 1.543-1.243 2.798-2.772 2.798h-18.994a2.79 2.79 0 0 1-2.772-2.8 1.08 1.08 0 0 0-1.087-1.081c-.6 0-1.087.493-1.087 1.093 0 2.742 2.22 4.972 4.946 4.972h18.994c2.727 0 4.946-2.23 4.946-4.972v-.025c0-.6-.486-1.087-1.087-1.087M68.418 15.862c-.877 0-1.6-.714-1.6-1.6a1.59 1.59 0 0 1 1.6-1.592c.886 0 1.6.714 1.6 1.592a1.59 1.59 0 0 1-1.59 1.59m0-5.356a3.77 3.77 0 0 0-3.765 3.765 3.77 3.77 0 0 0 3.765 3.765 3.77 3.77 0 0 0 3.765-3.765 3.77 3.77 0 0 0-3.765-3.765m138.65 45.52c-.877 0-1.6-.714-1.6-1.6s.714-1.6 1.6-1.6a1.59 1.59 0 0 1 1.592 1.6c0 .886-.714 1.6-1.592 1.6m0-5.356a3.77 3.77 0 0 0-3.765 3.765 3.77 3.77 0 0 0 3.765 3.765 3.77 3.77 0 0 0 3.765-3.765 3.77 3.77 0 0 0-3.765-3.765M172.213 5.357c-.877 0-1.6-.714-1.6-1.6a1.59 1.59 0 1 1 3.192 0 1.6 1.6 0 0 1-1.592 1.6m0-5.356a3.77 3.77 0 0 0-3.765 3.765 3.77 3.77 0 0 0 3.765 3.765 3.77 3.77 0 0 0 3.766-3.765 3.77 3.77 0 0 0-3.766-3.765"/><use xlink:href="#D"/><use xlink:href="#E"/><path d="M217.89 19.382l-2.66 2.66c-.424.424-.424 1.112 0 1.536a1.08 1.08 0 0 0 1.537 0l2.66-2.66c.425-.424.425-1.113 0-1.537a1.09 1.09 0 0 0-1.537 0"/><path d="M216.707 19.382a1.09 1.09 0 0 0-1.537 0 1.09 1.09 0 0 0 0 1.537l2.66 2.66c.213.213.5.32.77.32a1.08 1.08 0 0 0 .768-.319c.425-.424.425-1.112 0-1.536l-2.66-2.66zm-22.85-2.024l-2.66 2.66c-.425.425-.425 1.113 0 1.537a1.08 1.08 0 0 0 1.537 0l2.66-2.66c.425-.424.425-1.113 0-1.537a1.09 1.09 0 0 0-1.537 0"/><path d="M192.673 17.358a1.09 1.09 0 0 0-1.537 0c-.425.424-.425 1.113 0 1.537l2.66 2.66a1.08 1.08 0 0 0 1.537 0c.425-.424.425-1.112 0-1.537l-2.66-2.66zM32.7 131.585l-2.66 2.66c-.425.424-.425 1.112 0 1.536a1.08 1.08 0 0 0 1.536 0l2.66-2.66a1.09 1.09 0 0 0 0-1.537 1.09 1.09 0 0 0-1.537 0"/><path d="M31.515 131.585a1.09 1.09 0 0 0-1.537 0c-.425.425-.425 1.113 0 1.537l2.66 2.66a1.08 1.08 0 0 0 1.537 0c.424-.424.424-1.112 0-1.536l-2.66-2.66zm186.375-8.222l-2.66 2.66a1.09 1.09 0 0 0 0 1.537 1.08 1.08 0 0 0 1.537 0l2.66-2.66c.425-.424.425-1.113 0-1.537a1.09 1.09 0 0 0-1.537 0"/><path d="M216.707 123.363a1.09 1.09 0 0 0-1.537 0 1.09 1.09 0 0 0 0 1.537l2.66 2.66c.213.213.49.32.77.32a1.08 1.08 0 0 0 .768-.319c.425-.424.425-1.112 0-1.537l-2.66-2.66z"/><use xlink:href="#D" x="-5.556" y="35.546"/><use xlink:href="#E" x="-5.566" y="35.546"/></g><defs ><path id="B" d="M144.69 99.556c-1.137 0-2.062-.925-2.062-2.062s.925-2.06 2.062-2.06 2.062.925 2.062 2.06-.925 2.062-2.062 2.062m0-6.297a4.24 4.24 0 0 0-4.235 4.235 4.24 4.24 0 0 0 4.235 4.236 4.24 4.24 0 0 0 4.235-4.236 4.24 4.24 0 0 0-4.235-4.235"/><path id="C" d="M85.038 78.334c-.5 0-.905-.406-.905-.905s.406-.905.905-.905.905.406.905.905-.406.905-.905.905m0-3.984c-1.697 0-3.078 1.38-3.078 3.08s1.38 3.078 3.078 3.078 3.08-1.38 3.08-3.078-1.38-3.08-3.08-3.08"/><path id="D" d="M29.4 13.564l-2.66 2.66a1.09 1.09 0 0 0 0 1.537 1.08 1.08 0 0 0 1.537 0l2.66-2.66a1.09 1.09 0 0 0 0-1.537 1.09 1.09 0 0 0-1.537 0"/><path id="E" d="M28.226 13.564a1.09 1.09 0 0 0-1.537 0 1.09 1.09 0 0 0 0 1.537l2.66 2.66a1.08 1.08 0 0 0 1.537 0 1.09 1.09 0 0 0 0-1.537l-2.66-2.66z"/></defs></svg>