<svg xmlns="http://www.w3.org/2000/svg" xmlns:xlink="http://www.w3.org/1999/xlink" width="100%" height="100%" viewBox="0 0 220 166" fill-rule="evenodd" stroke-miterlimit="10"><path d="M95.43 46.282c0 .883.72 1.603 1.604 1.603s1.604-.72 1.604-1.603-.72-1.604-1.604-1.604-1.604.72-1.604 1.604m5.375 0a3.78 3.78 0 0 1-3.771 3.771c-2.08 0-3.77-1.693-3.77-3.77s1.69-3.77 3.77-3.77 3.77 1.69 3.77 3.77" fill="#fff" fill-rule="nonzero"/><path d="M96.976 57.42h4.225c0-7.473 7.668-12.792 7.668-12.792l-11.893-13.81-11.894 13.816s7.668 5.314 7.668 12.787h4.226z" fill="none" stroke="#fff"/><g fill="#fff"><path d="M97.902 30.642h-2.167v12.455h2.167z"/><g fill-rule="nonzero"><path d="M104.455 107.075H88.562v4.06h15.893v-4.06zm2.166-1.084v6.228c0 .598-.485 1.083-1.083 1.083H87.48c-.6 0-1.083-.485-1.083-1.083v-6.228c0-.597.484-1.083 1.083-1.083h18.06c.598 0 1.083.486 1.083 1.083"/><path d="M104.455 104.91V63.485h-.785a1.08 1.08 0 0 1-1.083-1.084v-3.898H90.43V62.4c0 .6-.486 1.084-1.084 1.084h-.785v41.424h15.894zM106.62 62.4v43.59a1.08 1.08 0 0 1-1.083 1.084h-18.06c-.597 0-1.083-.485-1.083-1.084V62.4c0-.598.486-1.083 1.083-1.083h.785V57.42c0-.6.484-1.084 1.083-1.084h14.324c.598 0 1.083.485 1.083 1.084v3.898h.784a1.08 1.08 0 0 1 1.083 1.083"/></g><path d="M96.197 61.318h-6.852v2.167h6.852z"/><g fill-rule="nonzero"><path d="M48.56 43.303l-.306-1.7c1.493-.266 3.024-.403 4.553-.408l.005 1.737c-1.428.004-2.858.133-4.252.38m12.632 1.06a24.34 24.34 0 0 0-4.126-1.087l.293-1.712a26.21 26.21 0 0 1 4.421 1.164l-.588 1.635zm-20.61 1.872l-.875-1.5a26.08 26.08 0 0 1 4.136-1.947l.6 1.63c-1.33.5-2.63 1.102-3.86 1.818m27.988 2.36a24.62 24.62 0 0 0-3.503-2.439l.864-1.506c1.32.757 2.583 1.635 3.752 2.61l-1.113 1.334zM34.084 51.72l-1.333-1.113a26.46 26.46 0 0 1 3.224-3.241l1.12 1.328a24.66 24.66 0 0 0-3.011 3.026m39.98 3.365c-.715-1.224-1.545-2.397-2.464-3.484l1.326-1.122c.985 1.164 1.872 2.42 2.638 3.73l-1.5.875zm-44.22 4l-1.633-.59a26.25 26.25 0 0 1 1.924-4.147l1.506.865c-.71 1.234-1.314 2.538-1.797 3.873m47.16 3.967c-.25-1.402-.628-2.787-1.12-4.118l1.63-.602c.525 1.427.93 2.91 1.2 4.412l-1.7.308zm-48.61 4.413h-1.736v-.056a26.47 26.47 0 0 1 .384-4.496l1.71.296c-.238 1.378-.36 2.79-.36 4.2v.056zm50.34 4.496l-1.71-.3c.244-1.394.368-2.825.368-4.253v-.11h1.736v.098c0 1.542-.13 3.073-.393 4.565M28.25 76.444a26.17 26.17 0 0 1-1.19-4.414l1.7-.304c.25 1.402.623 2.788 1.1 4.12l-1.63.597zm47.37 4.088l-1.504-.87a24.37 24.37 0 0 0 1.805-3.868l1.633.594a26.14 26.14 0 0 1-1.934 4.143m-42.8 3.786c-.983-1.168-1.868-2.425-2.63-3.738l1.502-.872a24.65 24.65 0 0 0 2.456 3.49l-1.328 1.12zm36.946 3.19l-1.118-1.33a24.82 24.82 0 0 0 3.018-3.021l1.33 1.117c-.98 1.167-2.065 2.254-3.23 3.233m-29.963 2.654c-1.317-.758-2.577-1.64-3.747-2.62l1.115-1.332a24.84 24.84 0 0 0 3.499 2.447l-.867 1.504zm22.084 1.91l-.596-1.632c1.334-.488 2.634-1.096 3.864-1.81l.87 1.503a26.16 26.16 0 0 1-4.139 1.938m-13.52 1.194c-1.503-.26-2.99-.656-4.42-1.175l.592-1.633c1.335.485 2.722.853 4.122 1.096l-.295 1.712zm4.552.388l-.003-1.737c1.43-.002 2.86-.127 4.254-.373l.3 1.71a26.5 26.5 0 0 1-4.552.399"/><path d="M49.463 85.478l.386.012h6.862v-4.393a.87.87 0 0 1 .448-.761c.283-.155.682-.304 1.145-.477l1.442-.604a.87.87 0 0 1 1.023.154l3.344 3.354 4.784-4.788-3.334-3.1a.87.87 0 0 1-.175-1.044c.22-.412.428-.903.6-1.335l.47-1.033c.153-.277.444-.448.76-.448h4.423a2.85 2.85 0 0 0 .031-.434v-6.866a2.84 2.84 0 0 0-.032-.446h-4.42a.87.87 0 0 1-.837-.638c-.194-.703-.428-1.124-.75-1.706l-.254-.465a.87.87 0 0 1 .163-1.035l3.313-3.193-4.76-4.727-3.335 3.375a.87.87 0 0 1-1.025.157c-.394-.212-.942-.414-1.425-.594l-1.167-.487a.87.87 0 0 1-.443-.758v-4.792c-.004-.026-.036-.077-.065-.1H49.85c-.085.016-.3.14-.386.237V53.2a.87.87 0 0 1-.633.836c-.736.207-1.207.464-1.802.793l-.398.215c-.342.184-.765.12-1.034-.16l-3.216-3.318-4.732 4.754L41 59.418c.3.266.362.697.176 1.045l-.245.45c-.324.6-.56 1-.755 1.722a.87.87 0 0 1-.837.638h-4.632c-.094.115-.204.342-.214.455v6.857c.01.102.12.322.2.434h4.635c.316 0 .607.17.76.448.147.267.297.62.47 1.028l.614 1.34a.87.87 0 0 1-.163 1.034l-3.3 3.195 4.76 4.728 3.124-3.356a.87.87 0 0 1 1.045-.172l.354.193c.632.344 1.1.594 1.842.803a.87.87 0 0 1 .637.837v4.38zm7.254 1.748H49.85c-1.407 0-2.122-.45-2.122-1.336v-4.16c-.5-.187-.923-.398-1.332-.618l-2.718 2.905c-.67.68-1.782.67-2.413.034L36.4 79.23c-.322-.323-.498-.738-.497-1.17s.177-.846.498-1.163l2.946-2.84-.388-.886-.18-.418h-4.243c-1.1 0-1.8-1.405-1.8-2.17v-6.866c0-.77.68-2.182 1.8-2.182h4.158c.187-.503.396-.904.617-1.305l-2.9-2.684c-.685-.684-.693-1.754-.04-2.414l4.832-4.854c.636-.642 1.705-.643 2.343.002l2.83 2.92a9.67 9.67 0 0 1 1.344-.632v-4.16c0-1.02 1.283-1.847 2.122-1.847H56.7c1 0 1.73.975 1.73 1.847v4.228l.478.18 1.045.406 2.938-2.96c.644-.647 1.76-.655 2.394-.013l4.854 4.817c.664.67.663 1.67.002 2.332l-2.923 2.818c.225.408.438.8.627 1.318h4.162c.42 0 1.397.213 1.397 2.182v6.866c0 1.958-.978 2.17-1.397 2.17H67.78l-.18.42-.38.87 2.916 2.712c.342.34.52.764.52 1.217a1.68 1.68 0 0 1-.493 1.195L65.3 84.024a1.73 1.73 0 0 1-2.388.001l-2.948-2.956-1.06.416-.465.177V85.9c0 .6-.3 1.336-1.73 1.336m-3.613-25.154a5.3 5.3 0 0 0-5.292 5.294 5.3 5.3 0 0 0 5.292 5.294 5.3 5.3 0 0 0 5.295-5.294 5.3 5.3 0 0 0-5.295-5.294m0 12.324a7.04 7.04 0 0 1-7.029-7.03 7.04 7.04 0 0 1 7.029-7.031 7.04 7.04 0 0 1 7.032 7.031 7.04 7.04 0 0 1-7.032 7.03m17.93-67.27c0-1.157.937-2.097 2.096-2.097a2.1 2.1 0 0 1 2.096 2.097 2.1 2.1 0 0 1-2.096 2.096c-1.16 0-2.096-.94-2.096-2.096m6.275 3.36a2.1 2.1 0 1 1 1.161.355 2.07 2.07 0 0 1-1.162-.355m-12.06.35a2.1 2.1 0 0 1 .218-2.958c.876-.756 2.2-.66 2.955.218s.66 2.2-.215 2.955a2.08 2.08 0 0 1-1.37.512 2.11 2.11 0 0 1-1.588-.727m15.144 3.904c-.3-1.116.343-2.27 1.46-2.58a2.1 2.1 0 0 1 2.58 1.46c.308 1.116-.345 2.272-1.462 2.58-.187.052-.375.076-.56.076-.92 0-1.762-.608-2.018-1.536m-17.1 2.682a2.1 2.1 0 0 1-1.77-2.379c.168-1.145 1.233-1.938 2.378-1.77a2.1 2.1 0 0 1 1.771 2.378 2.1 2.1 0 0 1-2.072 1.793 2 2 0 0 1-.307-.022m17.652 5.343c-1.046-.493-1.494-1.743-1-2.8s1.744-1.494 2.8-.998 1.494 1.743 1 2.8a2.1 2.1 0 0 1-1.896 1.2 2.09 2.09 0 0 1-.896-.202m-17.724.274c-.622-.976-.332-2.27.645-2.892s2.274-.332 2.894.646a2.1 2.1 0 0 1-.646 2.894 2.11 2.11 0 0 1-1.121.324c-.693 0-1.372-.343-1.772-.972m11.902 3.377a2.1 2.1 0 0 1 1.063-2.767c1.058-.47 2.297.005 2.767 1.063a2.1 2.1 0 0 1-1.063 2.768c-.276.125-.566.18-.85.18-.804 0-1.57-.463-1.917-1.244m-5.393 1.57a2.1 2.1 0 1 1 .607.092 2.03 2.03 0 0 1-.606-.092m-16.37 75.8c0-.863.7-1.563 1.564-1.563s1.565.7 1.565 1.563-.7 1.564-1.565 1.564-1.564-.7-1.564-1.564m4.684 2.507c-.72-.48-.912-1.45-.432-2.17a1.56 1.56 0 0 1 2.169-.431h.002c.718.48.9 1.45.43 2.17-.302.452-.798.697-1.303.697-.3 0-.6-.084-.867-.265m-9 .26c-.565-.654-.494-1.642.16-2.206s1.64-.493 2.207.162a1.56 1.56 0 0 1-.162 2.206 1.55 1.55 0 0 1-1.021.382 1.56 1.56 0 0 1-1.185-.544m11.3 2.915c-.23-.833.258-1.696 1.1-1.926a1.56 1.56 0 1 1 .835 3.025 1.52 1.52 0 0 1-.42.057c-.685 0-1.314-.453-1.506-1.146m-12.76 2c-.855-.125-1.446-.92-1.32-1.775s.92-1.446 1.776-1.32 1.446.92 1.32 1.774a1.57 1.57 0 0 1-1.548 1.339c-.075 0-.15-.006-.228-.017m13.175 3.988c-.782-.368-1.115-1.3-.747-2.082h.002c.368-.78 1.3-1.115 2.082-.747s1.115 1.303.745 2.084c-.267.564-.83.896-1.415.896a1.56 1.56 0 0 1-.667-.151m-13.228.205c-.464-.73-.248-1.695.48-2.16s1.697-.247 2.16.482.248 1.696-.48 2.16a1.56 1.56 0 0 1-2.159-.482m8.883 2.52c-.35-.8.005-1.713.794-2.065s1.713.004 2.065.794a1.56 1.56 0 0 1-.794 2.064c-.207.093-.422.136-.636.136-.598 0-1.17-.346-1.43-.93m-4.026 1.172c-.827-.25-1.295-1.124-1.044-1.95a1.57 1.57 0 0 1 1.95-1.046c.828.248 1.294 1.124 1.044 1.952-.204.675-.825 1.113-1.497 1.113a1.59 1.59 0 0 1-.453-.069M23.1 6.043h-7.396a1.21 1.21 0 0 1-1.208-1.209 1.21 1.21 0 0 1 1.208-1.208H23.1a1.21 1.21 0 0 1 1.21 1.208 1.21 1.21 0 0 1-1.21 1.209"/><path d="M19.342 9.813a1.21 1.21 0 0 1-1.209-1.209V1.2A1.21 1.21 0 0 1 19.342 0a1.21 1.21 0 0 1 1.209 1.209v7.395a1.21 1.21 0 0 1-1.209 1.209M8.605 161.494H1.2a1.21 1.21 0 0 1-1.208-1.209 1.21 1.21 0 0 1 1.208-1.209h7.396a1.21 1.21 0 0 1 1.209 1.209 1.21 1.21 0 0 1-1.209 1.209"/><use xlink:href="#B"/><path d="M218.385 161.494h-7.396a1.21 1.21 0 0 1-1.208-1.209 1.21 1.21 0 0 1 1.208-1.209h7.396a1.21 1.21 0 0 1 1.209 1.209 1.21 1.21 0 0 1-1.209 1.209"/><use xlink:href="#B" x="209.78"/><path d="M121.155 24.137a2.77 2.77 0 0 0-2.768 2.767V154.28a2.77 2.77 0 0 0 2.768 2.766h63.475a2.77 2.77 0 0 0 2.765-2.766V26.904a2.77 2.77 0 0 0-2.765-2.767h-63.475zm63.475 135.326h-63.475c-2.86 0-5.186-2.326-5.186-5.184V26.904c0-2.86 2.327-5.185 5.186-5.185h63.475a5.19 5.19 0 0 1 5.183 5.185V154.28a5.19 5.19 0 0 1-5.183 5.184"/><path d="M188.66 42.168h-71.396a1.21 1.21 0 0 1-1.209-1.209 1.21 1.21 0 0 1 1.209-1.209h71.396a1.21 1.21 0 0 1 1.209 1.209 1.21 1.21 0 0 1-1.209 1.209m-.712 99.13h-70.686a1.21 1.21 0 0 1-1.209-1.208 1.21 1.21 0 0 1 1.209-1.209h70.686a1.21 1.21 0 0 1 1.209 1.209 1.21 1.21 0 0 1-1.209 1.208m-28.586-108.1h-12.658a1.21 1.21 0 0 1-1.209-1.209 1.21 1.21 0 0 1 1.209-1.209h12.658a1.21 1.21 0 0 1 1.207 1.209 1.21 1.21 0 0 1-1.207 1.209m-6.388 114.048a1.98 1.98 0 0 0-1.979 1.979 1.98 1.98 0 0 0 1.98 1.98 1.99 1.99 0 0 0 1.98-1.98 1.98 1.98 0 0 0-1.98-1.979m0 6.378c-2.425 0-4.396-1.973-4.396-4.4a4.4 4.4 0 0 1 4.396-4.397c2.426 0 4.398 1.973 4.398 4.397s-1.972 4.4-4.398 4.4m-27.705-46.17h20.085V95.547H125.27v11.908zm21.294 2.418H124.06a1.21 1.21 0 0 1-1.209-1.209V94.34a1.21 1.21 0 0 1 1.209-1.209h22.503a1.21 1.21 0 0 1 1.209 1.209v14.325a1.21 1.21 0 0 1-1.209 1.209m13.95-2.42H180.6V95.547h-20.085v11.908zm21.294 2.418h-22.503a1.21 1.21 0 0 1-1.209-1.209V94.34a1.21 1.21 0 0 1 1.209-1.209h22.503a1.21 1.21 0 0 1 1.209 1.209v14.325a1.21 1.21 0 0 1-1.209 1.209"/><use xlink:href="#C"/><use xlink:href="#C" y="7.824"/><use xlink:href="#C" y="15.502"/><path d="M125.27 84.836H180.6V50.004H125.27v34.832zm56.538 2.42h-57.747a1.21 1.21 0 0 1-1.209-1.209v-37.25a1.21 1.21 0 0 1 1.209-1.208h57.747a1.21 1.21 0 0 1 1.209 1.208v37.25a1.21 1.21 0 0 1-1.209 1.209"/><path d="M171.104 86.372a1.2 1.2 0 0 1-.854-.354l-25.312-25.31-20.022 20.02a1.21 1.21 0 0 1-1.709 0 1.21 1.21 0 0 1 0-1.71l20.876-20.875c.226-.228.535-.355.855-.355s.628.127.854.355l26.166 26.166a1.21 1.21 0 0 1 0 1.709 1.2 1.2 0 0 1-.854.354"/><path d="M162.84 78.107a1.2 1.2 0 0 1-.854-.354 1.21 1.21 0 0 1 0-1.71l9.146-9.148c.228-.227.533-.352.854-.352a1.21 1.21 0 0 1 .856.352l8.98 8.982a1.21 1.21 0 0 1 0 1.71 1.21 1.21 0 0 1-1.71 0l-8.127-8.126-8.292 8.292a1.2 1.2 0 0 1-.854.354m.184-22.152a2.37 2.37 0 0 0-2.364 2.366 2.37 2.37 0 0 0 2.364 2.366 2.37 2.37 0 0 0 2.366-2.366 2.37 2.37 0 0 0-2.366-2.366m0 7.15a4.79 4.79 0 0 1-4.782-4.784 4.79 4.79 0 0 1 4.782-4.784 4.79 4.79 0 0 1 4.784 4.784 4.79 4.79 0 0 1-4.784 4.784m-58.275 87.155H19.483a1.06 1.06 0 0 1-1.065-1.067V44.515a1.06 1.06 0 0 1 1.065-1.067h15.005a1.07 1.07 0 0 1 1.068 1.067 1.06 1.06 0 0 1-1.068 1.067H20.55v102.543h84.197a1.06 1.06 0 0 1 1.065 1.067c0 .6-.476 1.067-1.065 1.067m-46.8-13.23H32a1.06 1.06 0 0 1-1.066-1.065v-21.83a1.06 1.06 0 0 1 1.066-1.07 1.07 1.07 0 0 1 1.066 1.069v20.763h24.9a1.06 1.06 0 0 1 1.066 1.068c0 .6-.477 1.065-1.066 1.065m23.457.001h-9.387a1.06 1.06 0 0 1-1.067-1.065 1.07 1.07 0 0 1 1.067-1.068h9.387a1.06 1.06 0 0 1 1.066 1.068c0 .6-.477 1.065-1.066 1.065m-74.17-61.5a1.06 1.06 0 0 1-1.067-1.066V33.848a1.06 1.06 0 0 1 1.067-1.066h15.573a1.06 1.06 0 0 1 1.067 1.066 1.07 1.07 0 0 1-1.067 1.068H8.32v39.538c0 .588-.477 1.066-1.066 1.066"/></g></g><defs ><path id="B" d="M4.835 165.263a1.21 1.21 0 0 1-1.209-1.209v-7.395a1.21 1.21 0 0 1 1.209-1.209 1.21 1.21 0 0 1 1.209 1.209v7.395a1.21 1.21 0 0 1-1.209 1.209"/><path id="C" d="M181.69 118.116h-57.743a1.21 1.21 0 0 1-1.209-1.209 1.21 1.21 0 0 1 1.209-1.209h57.743a1.21 1.21 0 0 1 1.209 1.209 1.21 1.21 0 0 1-1.209 1.209"/></defs></svg>