<svg xmlns="http://www.w3.org/2000/svg" xmlns:xlink="http://www.w3.org/1999/xlink" width="100%" height="100%" viewBox="0 0 193 153" fill-rule="evenodd" stroke-linejoin="round" stroke-miterlimit="1.41421"><g fill="#fff" fill-rule="nonzero"><path d="M27.72 144.604v1.635c0 2.382 1.937 4.32 4.318 4.32h128.673c2.382 0 4.32-1.937 4.32-4.32v-1.635H27.72zm132.99 7.655H32.04a6.03 6.03 0 0 1-6.019-6.02v-2.486a.85.85 0 0 1 .849-.85h139.013a.85.85 0 0 1 .852.85v2.486a6.03 6.03 0 0 1-6.022 6.02"/><path d="M106.143 148.58H86.58a.85.85 0 0 1-.851-.851v-3.888a.85.85 0 1 1 1.7 0v3.038h17.862v-3.038a.85.85 0 1 1 1.703 0v3.888a.85.85 0 0 1-.852.851m50.186-4.982a.85.85 0 0 1-.851-.851V76.784c0-2.6-2.067-4.636-4.706-4.636h-10.24a.85.85 0 1 1 0-1.701h10.24c3.593 0 6.4 2.783 6.4 6.337v65.963a.85.85 0 0 1-.852.851m-120.047.608a.85.85 0 0 1-.851-.851v-66.57c0-1.72.683-3.322 1.922-4.515 1.22-1.175 2.843-1.822 4.57-1.822h10.643a.85.85 0 1 1 0 1.701H41.912c-2.686 0-4.788 2.037-4.788 4.636v66.57a.85.85 0 0 1-.852.851m7.898-6.076a.84.84 0 0 1-.602-.232.81.81 0 0 1-.25-.585V79.195a.85.85 0 0 1 .852-.85h8.385a.85.85 0 1 1 0 1.701H45.02v56.416l102.678-.06V80.046h-7.17a.85.85 0 1 1 0-1.701h8.02a.85.85 0 0 1 .849.85v58.057c0 .47-.378.834-.848.834l-104.382.044zM20.1 98.395a.85.85 0 0 1-.851-.851v-5.468a.85.85 0 1 1 1.703 0v5.468a.85.85 0 0 1-.852.851"/><path d="M22.905 95.72h-5.468a.85.85 0 1 1 0-1.701h5.468a.85.85 0 1 1 0 1.701M161.3 54.893a.85.85 0 0 1-.851-.852v-5.467a.85.85 0 1 1 1.703 0v5.467a.85.85 0 0 1-.852.852"/><path d="M164.105 52.22h-5.47a.85.85 0 1 1 0-1.701h5.47a.85.85 0 1 1 0 1.701M78.68 31.562a.85.85 0 0 1-.851-.851v-5.468a.85.85 0 1 1 1.703 0v5.468a.85.85 0 0 1-.852.851"/><path d="M81.476 28.888h-5.47a.85.85 0 1 1 0-1.701h5.47a.85.85 0 1 1 0 1.701M35.03 38.675c0-.67.543-1.215 1.216-1.215s1.215.544 1.215 1.215-.545 1.215-1.215 1.215-1.216-.543-1.216-1.215m4.124 2.347c-.494-.452-.527-1.222-.073-1.718s1.22-.526 1.717-.073.527 1.22.074 1.716c-.24.26-.57.394-.897.394a1.2 1.2 0 0 1-.821-.319m-7.692.16c-.48-.472-.484-1.24-.01-1.72a1.22 1.22 0 0 1 1.718-.011 1.22 1.22 0 0 1 .009 1.72 1.21 1.21 0 0 1-.865.36c-.307 0-.616-.117-.85-.35m9.1 2.837c-.027-.67.498-1.226 1.167-1.25s1.236.484 1.26 1.155-.498 1.247-1.17 1.247h-.045a1.2 1.2 0 0 1-1.212-1.152m-11.044.3c-.008-.67.53-1.235 1.2-1.242s1.22.547 1.228 1.22-.527 1.25-1.2 1.25h-.016c-.663 0-1.207-.56-1.213-1.226m9.93 4.557c-.488-.46-.512-1.228-.054-1.717s1.23-.514 1.718-.054.514 1.228.055 1.718a1.22 1.22 0 0 1-.887.383 1.17 1.17 0 0 1-.832-.33m-7.87.194h.003c-.484-.487-.498-1.24-.033-1.722a1.22 1.22 0 0 1 1.719-.034c.483.466.498 1.234.03 1.718-.238.248-.558.375-.875.375-.305 0-.6-.094-.845-.337m3.6.664a1.2 1.2 0 0 1 1.183-1.231c.67-.016 1.23.495 1.244 1.165s-.512 1.224-1.183 1.224h-.03c-.66 0-1.2-.498-1.214-1.158m89.286-24.548c0-.67.544-1.215 1.217-1.215s1.215.544 1.215 1.215-.544 1.215-1.215 1.215-1.217-.543-1.217-1.215m4.125 2.347c-.494-.452-.527-1.222-.073-1.717s1.22-.526 1.717-.074.527 1.22.074 1.716c-.24.26-.57.394-.897.394a1.2 1.2 0 0 1-.821-.319m-7.692.16a1.21 1.21 0 0 1-.011-1.718c.47-.477 1.24-.482 1.718-.012a1.22 1.22 0 0 1 .009 1.72 1.21 1.21 0 0 1-.865.361c-.307 0-.616-.117-.85-.35m9.088 2.837c-.026-.67.5-1.226 1.168-1.25s1.236.485 1.26 1.155-.498 1.247-1.17 1.247h-.046c-.65 0-1.187-.496-1.212-1.152m-11.043.3c-.008-.67.53-1.235 1.2-1.242s1.22.547 1.228 1.22-.527 1.25-1.2 1.25h-.016c-.663 0-1.207-.56-1.213-1.227m9.93 4.557c-.488-.46-.513-1.228-.054-1.717s1.23-.513 1.718-.054.515 1.228.054 1.718c-.238.254-.563.383-.886.383a1.17 1.17 0 0 1-.832-.33m-7.868.187a1.22 1.22 0 0 1-.032-1.72c.466-.485 1.233-.497 1.72-.03a1.21 1.21 0 0 1-.845 2.09c-.304 0-.608-.114-.843-.34m3.6.672c-.018-.67.513-1.216 1.183-1.232s1.23.495 1.245 1.165-.513 1.224-1.184 1.224h-.03c-.66 0-1.2-.498-1.214-1.157m56.366 95.506c0-.67.544-1.215 1.216-1.215s1.215.544 1.215 1.215-.544 1.215-1.215 1.215-1.216-.543-1.216-1.215m4.124 2.347c-.494-.452-.526-1.223-.073-1.717s1.22-.53 1.716-.074.528 1.22.075 1.716c-.24.26-.57.394-.897.394-.294 0-.588-.104-.82-.32m-7.692.16a1.21 1.21 0 0 1-.011-1.718c.472-.477 1.24-.482 1.718-.01s.48 1.242.01 1.718a1.21 1.21 0 0 1-1.717.009m9.1 2.837c-.027-.67.5-1.226 1.168-1.25s1.236.484 1.26 1.155-.498 1.247-1.17 1.247h-.045c-.65 0-1.2-.497-1.213-1.152m-11.044.3c-.007-.67.53-1.235 1.2-1.242s1.22.547 1.23 1.22-.528 1.25-1.2 1.25h-.017c-.663 0-1.206-.56-1.213-1.226m9.93 4.557a1.22 1.22 0 0 1-.054-1.717c.46-.5 1.23-.514 1.72-.054s.514 1.228.055 1.718a1.22 1.22 0 0 1-.888.383 1.17 1.17 0 0 1-.832-.33m-7.87.186c-.48-.465-.497-1.234-.03-1.718s1.233-.497 1.718-.03.498 1.234.033 1.718a1.22 1.22 0 0 1-.877.372c-.303 0-.6-.114-.844-.34m3.6.673c-.02-.67.512-1.216 1.183-1.233s1.23.496 1.244 1.166-.512 1.224-1.183 1.224h-.03c-.66 0-1.2-.498-1.214-1.157M7.932 131.755c0-.67.544-1.215 1.216-1.215s1.216.544 1.216 1.215-.545 1.215-1.216 1.215-1.216-.543-1.216-1.215m4.124 2.347a1.22 1.22 0 0 1-.073-1.717c.454-.495 1.22-.53 1.718-.074a1.21 1.21 0 0 1 .074 1.716 1.22 1.22 0 0 1-.898.394c-.294 0-.588-.104-.82-.32m-7.7.16a1.21 1.21 0 0 1-.012-1.718c.472-.478 1.24-.482 1.72-.01s.48 1.242.01 1.718a1.21 1.21 0 0 1-.865.36c-.307 0-.615-.117-.85-.35m9.088 2.837a1.2 1.2 0 0 1 1.168-1.245c.67-.026 1.236.453 1.26 1.182a1.2 1.2 0 0 1-1.169 1.215h-.046a1.2 1.2 0 0 1-1.212-1.152m-11.043.3c-.008-.67.53-1.235 1.2-1.242s1.22.547 1.228 1.22-.527 1.25-1.2 1.25h-.016c-.664 0-1.207-.56-1.213-1.226m9.93 4.557c-.488-.46-.513-1.228-.054-1.717s1.23-.514 1.718-.054.514 1.228.055 1.718a1.22 1.22 0 0 1-.887.383 1.17 1.17 0 0 1-.832-.33m-7.87.186c-.48-.465-.497-1.234-.03-1.718s1.233-.497 1.718-.03a1.21 1.21 0 0 1 .033 1.718 1.22 1.22 0 0 1-.876.372c-.305 0-.6-.114-.845-.34m3.6.673c-.018-.67.512-1.216 1.183-1.233s1.23.496 1.244 1.166-.512 1.224-1.183 1.224h-.03c-.66 0-1.2-.498-1.214-1.157m-4.078-95.64h13.1v-29.63a7.48 7.48 0 0 0-.662-3.082l-5.693-12.64c-.046-.102-.13-.124-.2-.124s-.147.022-.2.124l-5.694 12.64a7.49 7.49 0 0 0-.66 3.082v29.63zm13.94 1.7H3.145a.85.85 0 0 1-.849-.85v-30.48a9.14 9.14 0 0 1 .81-3.78L8.8 1.127C9.1.432 9.778 0 10.542 0a1.88 1.88 0 0 1 1.74 1.127l5.693 12.64a9.14 9.14 0 0 1 .812 3.78V48.03a.85.85 0 0 1-.852.85"/><path d="M2.356 48.88c-.36 0-.654.294-.654.655v12.45c0 .36.294.655.654.655h16.37c.36 0 .655-.294.655-.655v-12.45c0-.36-.294-.655-.655-.655H2.356zm16.37 15.46H2.356a2.36 2.36 0 0 1-2.355-2.356v-12.45a2.36 2.36 0 0 1 2.355-2.356h16.37a2.36 2.36 0 0 1 2.358 2.356v12.45a2.36 2.36 0 0 1-2.358 2.356m-1.41-47.967H3.95a.85.85 0 1 1 0-1.701h13.366a.85.85 0 1 1 0 1.701"/><path d="M13.185 8.23H7.96a.85.85 0 1 1 0-1.701h5.226a.85.85 0 1 1 0 1.701m-8.552 56.1v5.587a1.57 1.57 0 0 0 1.565 1.566h8.685a1.57 1.57 0 0 0 1.564-1.566V64.34H4.634zm10.25 8.854H6.2a3.27 3.27 0 0 1-3.266-3.267V63.49a.85.85 0 0 1 .849-.85H17.3a.85.85 0 0 1 .851.85v6.438a3.27 3.27 0 0 1-3.267 3.267"/><path d="M10.268 48.817a.85.85 0 0 1-.851-.851v-9.6a.85.85 0 1 1 1.703 0v9.6a.85.85 0 0 1-.852.851m0-22.115a.85.85 0 0 1-.851-.851v-9.357a.85.85 0 1 1 1.703 0v9.357a.85.85 0 0 1-.852.851M3.706 56.594h-2.3a.85.85 0 1 1 0-1.701h2.3a.85.85 0 1 1 0 1.701m16.394 0H9.173a.85.85 0 1 1 0-1.701H20.1a.85.85 0 1 1 0 1.701M175.253 2.35c-.935 0-1.694.76-1.694 1.695V105.46a1.7 1.7 0 0 0 1.694 1.697h13.773a1.7 1.7 0 0 0 1.698-1.697V4.046a1.7 1.7 0 0 0-1.698-1.695h-13.773zm13.773 106.506h-13.773c-1.872 0-3.396-1.525-3.396-3.398V4.046A3.4 3.4 0 0 1 175.253.65h13.773c1.873 0 3.4 1.523 3.4 3.396V105.46c0 1.873-1.526 3.398-3.4 3.398"/><use xlink:href="#B"/><use xlink:href="#C"/><use xlink:href="#B" y="14.217"/><use xlink:href="#C" y="14.095"/><use xlink:href="#B" y="28.556"/><use xlink:href="#C" y="28.19"/><use xlink:href="#B" y="42.652"/><use xlink:href="#C" y="42.286"/><use xlink:href="#B" y="56.747"/><use xlink:href="#C" y="56.746"/><use xlink:href="#B" y="71.086"/><use xlink:href="#C" y="70.842"/><use xlink:href="#B" y="85.425"/><use xlink:href="#C" y="85.18"/><path d="M177.985 101.894a1.06 1.06 0 0 0-1.059 1.059 1.06 1.06 0 0 0 1.059 1.058 1.06 1.06 0 0 0 1.059-1.058 1.06 1.06 0 0 0-1.059-1.059m0 3.818c-1.52 0-2.76-1.238-2.76-2.76s1.24-2.76 2.76-2.76 2.76 1.238 2.76 2.76-1.24 2.76-2.76 2.76m-122.235 9.33h-2.733a.85.85 0 0 1-.853-.851v-2.734a.85.85 0 1 1 1.702 0v1.884h1.884a.85.85 0 1 1 0 1.701"/><use xlink:href="#D"/><path d="M139.777 115.042h-2.733a.85.85 0 1 1 0-1.701h1.882v-1.884a.85.85 0 1 1 1.703 0v2.734a.85.85 0 0 1-.852.851m0-40.95a.85.85 0 0 1-.851-.851v-6.034a.85.85 0 1 1 1.703 0v6.034a.85.85 0 0 1-.852.851m0 14.75a.85.85 0 0 1-.851-.852v-6.033a.85.85 0 1 1 1.703 0V88a.85.85 0 0 1-.852.852m0 14.75a.85.85 0 0 1-.851-.851v-6.034a.85.85 0 1 1 1.703 0v6.034a.85.85 0 0 1-.852.851m0-44.25a.85.85 0 0 1-.851-.851V56.6h-1.882a.85.85 0 1 1 0-1.702h2.733a.85.85 0 0 1 .852.851v2.734a.85.85 0 0 1-.852.851"/><use xlink:href="#D" y="-58.432"/><path d="M53.018 59.343a.85.85 0 0 1-.853-.851v-2.734a.85.85 0 0 1 .853-.851h2.732a.85.85 0 1 1 0 1.702h-1.88v1.883a.85.85 0 0 1-.851.851m-.001 14.75a.85.85 0 0 1-.853-.851v-6.034a.85.85 0 0 1 1.704 0v6.034a.85.85 0 0 1-.851.851m0 14.75a.85.85 0 0 1-.853-.852v-6.033a.85.85 0 0 1 1.704 0v6.033a.85.85 0 0 1-.851.852m0 14.75a.85.85 0 0 1-.853-.851v-6.034a.85.85 0 0 1 1.704 0v6.034a.85.85 0 0 1-.851.851"/><path d="M104.5 106.87a.85.85 0 0 1-.603-.249L74.526 77.24l-20.91 20.907a.85.85 0 1 1-1.202-1.203l21.508-21.508a.85.85 0 0 1 1.203 0l29.986 29.984a.85.85 0 0 1-.602 1.452"/><path d="M139.17 97.666a.85.85 0 0 1-.432-.118L116.315 84.3l-21.08 11.9a.85.85 0 0 1-1.159-.323c-.23-.4-.087-.927.322-1.16l21.5-12.15a.85.85 0 0 1 .852.008l22.845 13.488a.85.85 0 0 1-.435 1.583m-39.977-30.5a3.53 3.53 0 0 0-3.523 3.524 3.53 3.53 0 0 0 3.523 3.524 3.53 3.53 0 0 0 3.523-3.524 3.53 3.53 0 0 0-3.523-3.524m0 8.75c-2.882 0-5.226-2.344-5.226-5.225s2.344-5.225 5.226-5.225 5.226 2.344 5.226 5.225-2.344 5.225-5.226 5.225M27.9 16.373h-1.46a.85.85 0 1 1 0-1.701h1.46a.85.85 0 1 1 0 1.701m8.87 0H33.6a.85.85 0 1 1 0-1.701h3.16a.85.85 0 1 1 0 1.701m8.748 0H42.35a.85.85 0 1 1 0-1.701h3.158a.85.85 0 1 1 0 1.701m8.75 0H51.1a.85.85 0 1 1 0-1.701h3.158a.85.85 0 1 1 0 1.701m8.75 0H59.85a.85.85 0 1 1 0-1.701h3.158a.85.85 0 1 1 0 1.701m8.75 0H68.6a.85.85 0 1 1 0-1.701h3.158a.85.85 0 1 1 0 1.701m8.75 0H77.35a.85.85 0 1 1 0-1.701h3.158a.85.85 0 1 1 0 1.701m8.75 0H86.1a.85.85 0 1 1 0-1.701h3.158a.85.85 0 1 1 0 1.701m8.75 0H94.85a.85.85 0 1 1 0-1.701H98a.85.85 0 1 1 0 1.701m8.75 0h-3.16a.85.85 0 1 1 0-1.701h3.16a.85.85 0 1 1 0 1.701m8.75 0h-3.16a.85.85 0 1 1 0-1.701h3.16a.85.85 0 1 1 0 1.701m8.75 0h-3.16a.85.85 0 1 1 0-1.701h3.16a.85.85 0 1 1 0 1.701m8.75 0h-3.16a.85.85 0 1 1 0-1.701H133a.85.85 0 1 1 0 1.701m8.75 0h-3.16a.85.85 0 1 1 0-1.701h3.16a.85.85 0 1 1 0 1.701m8.75 0h-3.16a.85.85 0 1 1 0-1.701h3.16a.85.85 0 1 1 0 1.701m8.75 0h-3.16a.85.85 0 1 1 0-1.701h3.16a.85.85 0 1 1 0 1.701"/><path d="M166.535 16.373h-1.578a.85.85 0 1 1 0-1.701h1.578a.85.85 0 1 1 0 1.701m-70.113 2.065a.85.85 0 0 1-.851-.851v-1.58a.85.85 0 1 1 1.703 0v1.58a.85.85 0 0 1-.852.851m0 8.142a.85.85 0 0 1-.851-.851v-2.916a.85.85 0 1 1 1.703 0v2.916a.85.85 0 0 1-.852.851m0 8.263a.85.85 0 0 1-.851-.851v-2.916a.85.85 0 1 1 1.703 0v2.916a.85.85 0 0 1-.852.851m0 8.263a.85.85 0 0 1-.851-.85V39.34a.85.85 0 1 1 1.703 0v2.917a.85.85 0 0 1-.852.85m0 7.047a.85.85 0 0 1-.851-.851v-1.458a.85.85 0 1 1 1.703 0v1.458a.85.85 0 0 1-.852.851"/></g><defs ><path id="B" d="M191.203 9.568h-9.234a.85.85 0 1 1 0-1.701h9.234a.85.85 0 1 1 0 1.701"/><path id="C" d="M191.203 16.86h-4.253a.85.85 0 1 1 0-1.701h4.253a.85.85 0 1 1 0 1.701"/><path id="D" d="M68.084 115.042h-5.046a.85.85 0 1 1 0-1.701h5.046a.85.85 0 1 1 0 1.701m12.335 0h-5.046a.85.85 0 1 1 0-1.701h5.046a.85.85 0 1 1 0 1.701m12.334 0h-5.046a.85.85 0 1 1 0-1.701h5.046a.85.85 0 1 1 0 1.701m12.334 0h-5.046a.85.85 0 1 1 0-1.701h5.046a.85.85 0 1 1 0 1.701m12.334 0h-5.046a.85.85 0 1 1 0-1.701h5.046a.85.85 0 1 1 0 1.701m12.335 0h-5.047a.85.85 0 1 1 0-1.701h5.047a.85.85 0 1 1 0 1.701"/></defs></svg>